# File created by Blade
# Date/Time:  Wed Jan 21 15:15:22 2015
# Frame Rate: 120.000 fps
#------------------------------------------------------
:FULLY-SPECIFIED
:DEGREES
803
root 22.322549 38.255839 -19.719597 180.214779 -49.452011 -106.348787
Spine -33.490756 -11.492193 0.215163
Head -17.067489 32.616804 33.434677
LeftShoulder -9.485179 -25.813355 9.516637
LeftArm 1.482074 13.500105 -43.914498
LeftForeArm -1.018844 -0.000000 5.918948
LeftHand -0.341525 -0.000000 -2.691369
LeftHandThumb1 -26.253704 0.000000 33.147579
RightShoulder -24.946685 -21.283870 9.596593
RightArm -8.713872 11.997695 54.870313
RightForeArm -46.688445 -0.000000 9.522688
RightHand -1.885055 -0.000000 25.026984
RightHandThumb1 -24.326973 -0.000000 -32.862282
LeftUpLeg -79.749939 35.129588 -8.292486
LeftLeg -5.093348 -0.000000 0.000000
LeftFoot -11.926041 24.523436 -11.643073
LeftToeBase 24.118693 -0.000000 -0.000000
RightUpLeg 3.017881 5.713416 -13.271431
RightLeg 128.640916 -0.000000 -0.000000
RightFoot 21.215746 -36.071446 -8.518326
RightToeBase 22.354544 -0.000000 -0.000000
804
root 22.327145 38.267022 -19.717072 180.294887 -49.293213 -106.163143
Spine -33.543280 -11.454568 0.185048
Head -17.220826 32.669646 33.563527
LeftShoulder -9.451955 -25.833051 9.619941
LeftArm 1.587650 13.037365 -43.893716
LeftForeArm -0.603425 -0.000000 5.828560
LeftHand -0.226245 -0.000000 -2.697513
LeftHandThumb1 -26.253704 0.000000 33.147579
RightShoulder -25.030008 -21.347733 9.771155
RightArm -8.600144 12.148176 54.790110
RightForeArm -46.868037 -0.000000 9.576638
RightHand -1.908426 0.000000 25.007270
RightHandThumb1 -24.326973 -0.000000 -32.862282
LeftUpLeg -79.967315 35.254542 -8.234821
LeftLeg -5.148262 -0.000000 0.000000
LeftFoot -11.868718 24.575873 -11.649334
LeftToeBase 24.040271 -0.000000 -0.000000
RightUpLeg 2.893851 5.765403 -13.258486
RightLeg 128.671118 -0.000000 -0.000000
RightFoot 21.212300 -36.089880 -8.620575
RightToeBase 22.570840 -0.000000 -0.000000
805
root 22.331456 38.278719 -19.711375 180.430190 -49.134199 -106.000667
Spine -33.655995 -11.426646 0.159332
Head -17.291895 32.707101 33.705012
LeftShoulder -9.403415 -25.814285 9.668404
LeftArm 1.666721 13.224162 -43.758156
LeftForeArm -0.849719 -0.000000 5.881546
LeftHand -0.185165 -0.000000 -2.717435
LeftHandThumb1 -26.253704 0.000000 33.147579
RightShoulder -25.050189 -21.254767 9.819734
RightArm -8.631636 12.143234 54.699679
RightForeArm -46.985207 -0.000000 9.560975
RightHand -1.904284 -0.000000 25.026489
RightHandThumb1 -24.326973 -0.000000 -32.862282
LeftUpLeg -80.206477 35.369440 -8.173775
LeftLeg -5.195742 -0.000000 0.000000
LeftFoot -11.831300 24.641667 -11.714654
LeftToeBase 23.989508 -0.000000 -0.000000
RightUpLeg 2.723829 5.820699 -13.285579
RightLeg 128.692856 -0.000000 -0.000000
RightFoot 21.361244 -36.102585 -8.843127
RightToeBase 22.685707 -0.000000 -0.000000
806
root 22.335633 38.287087 -19.706454 180.504062 -49.016543 -105.848325
Spine -33.675585 -11.443512 0.119839
Head -17.396176 32.716794 33.849637
LeftShoulder -9.384381 -25.845126 9.737677
LeftArm 1.776314 13.152902 -43.667436
LeftForeArm -0.736140 -0.000000 5.824144
LeftHand -0.258668 0.000000 -2.645337
LeftHandThumb1 -26.253704 0.000000 33.147579
RightShoulder -25.099370 -21.266145 9.957436
RightArm -8.507098 12.113472 54.614448
RightForeArm -46.982134 -0.000000 9.518756
RightHand -1.978955 -0.000000 25.109982
RightHandThumb1 -24.326973 -0.000000 -32.862282
LeftUpLeg -80.346673 35.456479 -8.054777
LeftLeg -5.240691 -0.000000 0.000000
LeftFoot -11.810441 24.684934 -11.754193
LeftToeBase 23.990284 -0.000000 -0.000000
RightUpLeg 2.653814 5.849798 -13.312770
RightLeg 128.697385 -0.000000 -0.000000
RightFoot 21.372876 -36.269643 -8.692491
RightToeBase 22.312432 -0.000000 -0.000000
807
root 22.339125 38.296564 -19.697677 180.630642 -48.902901 -105.708752
Spine -33.758678 -11.471568 0.091226
Head -17.451140 32.743050 34.005411
LeftShoulder -9.384590 -25.813377 9.764887
LeftArm 1.943002 13.253256 -43.502142
LeftForeArm -0.823339 -0.000000 5.822767
LeftHand -0.259399 -0.000000 -2.716194
LeftHandThumb1 -26.253704 0.000000 33.147579
RightShoulder -25.101849 -21.212679 9.995032
RightArm -8.493502 12.028849 54.546111
RightForeArm -46.992160 -0.000000 9.456045
RightHand -1.931079 -0.000000 25.067389
RightHandThumb1 -24.326973 -0.000000 -32.862282
LeftUpLeg -80.561590 35.532098 -7.993479
LeftLeg -5.253812 -0.000000 0.000000
LeftFoot -11.805774 24.716174 -11.834380
LeftToeBase 23.958511 -0.000000 -0.000000
RightUpLeg 2.548732 5.898570 -13.363121
RightLeg 128.729970 -0.000000 -0.000000
RightFoot 21.347093 -36.332740 -8.614642
RightToeBase 21.967522 -0.000000 -0.000000
808
root 22.342831 38.305614 -19.688334 180.795003 -48.797661 -105.569129
Spine -33.907224 -11.489505 0.078975
Head -17.472806 32.712978 34.123007
LeftShoulder -9.303985 -25.859659 9.773539
LeftArm 1.938777 13.626112 -43.324802
LeftForeArm -1.097331 -0.000000 5.886598
LeftHand -0.196692 0.000000 -2.750712
LeftHandThumb1 -26.253704 0.000000 33.147579
RightShoulder -25.138128 -21.237912 10.029275
RightArm -8.413807 12.003395 54.505879
RightForeArm -46.935870 -0.000000 9.393467
RightHand -1.952829 -0.000000 25.122058
RightHandThumb1 -24.326973 -0.000000 -32.862282
LeftUpLeg -80.835986 35.589358 -7.957948
LeftLeg -5.238461 -0.000000 0.000000
LeftFoot -11.827061 24.764945 -11.927925
LeftToeBase 23.930531 -0.000000 -0.000000
RightUpLeg 2.416204 5.892347 -13.426930
RightLeg 128.753914 -0.000000 -0.000000
RightFoot 21.421201 -36.280479 -8.930244
RightToeBase 22.385042 -0.000000 -0.000000
809
root 22.345284 38.313018 -19.677817 180.927789 -48.712550 -105.443638
Spine -33.986107 -11.520558 0.042823
Head -17.523125 32.669942 34.245046
LeftShoulder -9.299694 -25.809678 9.826689
LeftArm 2.160469 13.422528 -43.230400
LeftForeArm -0.795937 0.000000 5.733454
LeftHand -0.138269 -0.000000 -2.766288
LeftHandThumb1 -26.253704 0.000000 33.147579
RightShoulder -25.123257 -21.189525 10.044148
RightArm -8.459371 12.057123 54.437011
RightForeArm -46.958425 -0.000000 9.381642
RightHand -1.961965 -0.000000 25.139284
RightHandThumb1 -24.326973 -0.000000 -32.862282
LeftUpLeg -81.116531 35.637571 -8.007918
LeftLeg -5.229328 -0.000000 0.000000
LeftFoot -11.798529 24.732486 -11.949223
LeftToeBase 23.911777 -0.000000 -0.000000
RightUpLeg 2.332241 5.892503 -13.507877
RightLeg 128.753330 -0.000000 -0.000000
RightFoot 21.407052 -36.325724 -8.926616
RightToeBase 22.602705 -0.000000 -0.000000
810
root 22.347795 38.319141 -19.667112 181.070961 -48.649295 -105.337869
Spine -34.064066 -11.585830 0.002374
Head -17.563688 32.643865 34.368358
LeftShoulder -9.274716 -25.893083 9.827418
LeftArm 2.209840 13.773400 -43.021609
LeftForeArm -0.997691 -0.000000 5.846521
LeftHand -0.325090 -0.000000 -2.849275
LeftHandThumb1 -26.253704 0.000000 33.147579
RightShoulder -25.132939 -21.168577 10.046799
RightArm -8.433218 12.030242 54.397034
RightForeArm -46.970651 -0.000000 9.329272
RightHand -1.925967 -0.000000 25.122154
RightHandThumb1 -24.326973 -0.000000 -32.862282
LeftUpLeg -81.427300 35.669654 -8.151093
LeftLeg -5.242434 -0.000000 0.000000
LeftFoot -11.732856 24.646526 -11.948565
LeftToeBase 23.815460 -0.000000 -0.000000
RightUpLeg 2.268285 5.865851 -13.614428
RightLeg 128.745080 -0.000000 -0.000000
RightFoot 21.462752 -36.293509 -8.979276
RightToeBase 22.595489 -0.000000 -0.000000
811
root 22.348079 38.322202 -19.661304 181.171251 -48.555224 -105.279992
Spine -34.039390 -11.603914 -0.124033
Head -17.653311 32.639584 34.466523
LeftShoulder -9.256230 -25.906811 9.803024
LeftArm 2.401625 14.196187 -42.757345
LeftForeArm -1.270454 -0.000000 5.866903
LeftHand -0.383050 -0.000000 -2.857489
LeftHandThumb1 -26.253704 0.000000 33.147579
RightShoulder -25.158974 -21.130746 10.102483
RightArm -8.438863 12.136966 54.326827
RightForeArm -46.998337 0.000000 9.312606
RightHand -1.941486 -0.000000 25.182161
RightHandThumb1 -24.326973 -0.000000 -32.862282
LeftUpLeg -81.668029 35.751416 -8.296415
LeftLeg -5.229006 -0.000000 0.000000
LeftFoot -11.703899 24.554217 -11.863879
LeftToeBase 23.779447 -0.000000 -0.000000
RightUpLeg 2.300695 5.888046 -13.740640
RightLeg 128.734679 -0.000000 -0.000000
RightFoot 21.487540 -36.233188 -9.006470
RightToeBase 22.642011 -0.000000 -0.000000
812
root 22.354174 38.326279 -19.651561 181.190812 -48.556410 -105.100813
Spine -34.000625 -11.697797 -0.123658
Head -17.780811 32.667912 34.493118
LeftShoulder -9.255389 -26.003679 9.860163
LeftArm 2.524525 13.872604 -42.694859
LeftForeArm -0.859249 -0.000000 5.758581
LeftHand -0.312288 0.000000 -2.864793
LeftHandThumb1 -26.253704 0.000000 33.147579
RightShoulder -25.200434 -21.082457 10.093343
RightArm -8.358732 12.159963 54.288108
RightForeArm -47.055785 -0.000000 9.206806
RightHand -1.894468 0.000000 25.163262
RightHandThumb1 -24.326973 -0.000000 -32.862282
LeftUpLeg -82.000106 35.726294 -8.452180
LeftLeg -5.184627 -0.000000 0.000000
LeftFoot -11.629971 24.419908 -11.850389
LeftToeBase 23.677770 -0.000000 -0.000000
RightUpLeg 2.338732 5.812100 -13.810202
RightLeg 128.711449 -0.000000 -0.000000
RightFoot 21.567527 -36.187104 -9.028781
RightToeBase 22.758197 -0.000000 -0.000000
